# File produced by Open Asset Import Library (http://www.assimp.sf.net)
# (assimp v3.1.197435470)

mtllib can.mtl

# 75 vertex positions
v  10.2428 22.2666 -3.09455
v  10.2428 1.96127 -3.09455
v  7.73329 1.96127 -6.54863
v  7.73329 22.2666 -6.54863
v  4.0358 1.96127 -8.68338
v  4.0358 22.2666 -8.68338
v  -0.210296 1.96127 -9.12966
v  -0.210296 22.2666 -9.12966
v  -4.27082 1.96127 -7.81032
v  -4.27082 22.2666 -7.81032
v  -7.44367 1.96127 -4.95348
v  -7.44367 22.2666 -4.95348
v  -9.18022 1.96127 -1.0531
v  -9.18022 22.2666 -1.0531
v  -9.18022 1.96127 3.21638
v  -9.18022 22.2666 3.21638
v  -7.44367 1.96127 7.11675
v  -7.44367 22.2666 7.11675
v  -4.27082 1.96127 9.9736
v  -4.27082 22.2666 9.9736
v  -0.210298 1.96127 11.2929
v  -0.210298 22.2666 11.2929
v  4.0358 1.96127 10.8467
v  4.0358 22.2666 10.8467
v  7.73328 1.96127 8.71192
v  7.73328 22.2666 8.71192
v  10.2428 1.96127 5.25783
v  10.2428 22.2666 5.25783
v  11.1305 1.96127 1.08164
v  11.1305 22.2666 1.08164
v  10.7625 22.8928 -3.10254
v  10.7625 22.3832 -3.10254
v  8.2048 22.3832 -6.76731
v  8.2048 22.8928 -6.76731
v  4.37761 22.3832 -9.07492
v  4.37761 22.8928 -9.07492
v  -0.0573003 22.3832 -9.62638
v  -0.0573003 22.8928 -9.62638
v  -4.33309 22.3832 -8.32632
v  -4.33309 22.8928 -8.32632
v  -7.71043 22.3832 -5.39955
v  -7.71043 22.8928 -5.39955
v  -9.60536 22.4292 -1.18951
v  -9.60536 22.9388 -1.18951
v  -9.60536 22.3127 3.46935
v  -9.60536 22.8223 3.46935
v  -7.71044 22.1501 7.56282
v  -7.71044 22.6597 7.56282
v  -4.33309 22.1501 10.4896
v  -4.33309 22.6597 10.4896
v  -0.057303 22.1501 11.7897
v  -0.057303 22.6597 11.7897
v  4.37761 22.1501 11.2382
v  4.37761 22.6597 11.2382
v  8.2048 22.1501 8.9306
v  8.2048 22.6597 8.9306
v  10.7625 22.1501 5.26582
v  10.7625 22.6597 5.26582
v  11.6519 22.2666 1.08164
v  11.6519 22.7762 1.08164
v  10.7331 1.58985 -3.31282
v  11.6672 1.58985 1.08164
v  10.7331 1.58985 5.47611
v  8.09238 1.58985 9.11073
v  4.20164 1.58985 11.3571
v  -0.266394 1.58985 11.8267
v  -4.53915 1.58985 10.4384
v  -7.87784 1.58985 7.43219
v  -9.70516 1.58985 3.32796
v  -9.70516 1.58985 -1.16468
v  -7.87783 1.58985 -5.26892
v  -4.53915 1.58985 -8.27507
v  -0.266392 1.58985 -9.66338
v  4.20164 1.58985 -9.19377
v  8.09238 1.58985 -6.94745

# 109 UV coordinates
vt 0.795971 0.952816 0
vt 0.795971 0.517573 0
vt 0.857552 0.517573 0
vt 0.857552 0.952816 0
vt 0.918911 0.517573 0
vt 0.918911 0.952816 0
vt 0.979991 0.517573 0
vt 0.979991 0.952816 0
vt 0.0647649 0.952816 0
vt 0.0647649 0.517573 0
vt 0.125559 0.517573 0
vt 0.125559 0.952816 0
vt 0.186107 0.517573 0
vt 0.186107 0.952816 0
vt 0.246491 0.517573 0
vt 0.246491 0.952816 0
vt 0.306817 0.517573 0
vt 0.306817 0.952816 0
vt 0.367202 0.517573 0
vt 0.367202 0.952816 0
vt 0.42775 0.517573 0
vt 0.42775 0.952816 0
vt 0.488544 0.517573 0
vt 0.488544 0.952816 0
vt 0.549624 0.517573 0
vt 0.549624 0.952816 0
vt 0.610983 0.517573 0
vt 0.610983 0.952816 0
vt 0.672564 0.517573 0
vt 0.672564 0.952816 0
vt 0.734268 0.517573 0
vt 0.734268 0.952816 0
vt 0.793146 0.966238 0
vt 0.793146 0.955315 0
vt 0.854709 0.955315 0
vt 0.854709 0.966238 0
vt 0.916064 0.955315 0
vt 0.916064 0.966238 0
vt 0.977154 0.955315 0
vt 0.977154 0.966238 0
vt 0.061928 0.966238 0
vt 0.061928 0.955315 0
vt 0.122744 0.955315 0
vt 0.122744 0.966238 0
vt 0.183322 0.955315 0
vt 0.183322 0.966238 0
vt 0.245871 0.956302 0
vt 0.245871 0.967225 0
vt 0.308967 0.953803 0
vt 0.308967 0.964726 0
vt 0.369987 0.950318 0
vt 0.369987 0.961241 0
vt 0.430565 0.950318 0
vt 0.430565 0.961241 0
vt 0.491381 0.950318 0
vt 0.491381 0.961241 0
vt 0.552471 0.950318 0
vt 0.552471 0.961241 0
vt 0.613826 0.950318 0
vt 0.613826 0.961241 0
vt 0.675389 0.950318 0
vt 0.675389 0.961241 0
vt 0.734268 0.96374 0
vt 0.305861 0.0729734 0
vt 0.378417 0.116721 0
vt 0.426906 0.186199 0
vt 0.443767 0.265523 0
vt 0.426906 0.344847 0
vt 0.378417 0.414324 0
vt 0.305861 0.458072 0
vt 0.221783 0.468526 0
vt 0.140723 0.44388 0
vt 0.0766945 0.388393 0
vt 0.0407704 0.308579 0
vt 0.0407704 0.220256 0
vt 0.0766945 0.142652 0
vt 0.140722 0.0871655 0
vt 0.221783 0.0625189 0
vt 0.795937 0.509612 0
vt 0.734268 0.509612 0
vt 0.672599 0.509612 0
vt 0.611046 0.509612 0
vt 0.549703 0.509612 0
vt 0.488626 0.509612 0
vt 0.427821 0.509612 0
vt 0.36725 0.509612 0
vt 0.306834 0.509612 0
vt 0.246474 0.509612 0
vt 0.186059 0.509612 0
vt 0.125487 0.509612 0
vt 0.0646825 0.509612 0
vt 0.979909 0.509612 0
vt 0.918832 0.509612 0
vt 0.663948 0.438306 0
vt 0.743048 0.429992 0
vt 0.811927 0.390225 0
vt 0.858677 0.325879 0
vt 0.875213 0.248082 0
vt 0.858677 0.170285 0
vt 0.811927 0.10594 0
vt 0.743048 0.0661724 0
vt 0.663948 0.0578587 0
vt 0.588306 0.0824364 0
vt 0.5292 0.135656 0
vt 0.49685 0.208315 0
vt 0.49685 0.28785 0
vt 0.5292 0.360509 0
vt 0.588306 0.413728 0
vt 0.857489 0.509612 0

# 106 vertex normals
vn 0.913545 0 -0.406737
vn 0.669131 0 -0.743145
vn 0.309017 0 -0.951056
vn -0.104528 0 -0.994522
vn -0.499999 0 -0.866026
vn -0.809017 0 -0.587785
vn -0.978148 0 -0.207912
vn -0.978148 0 0.207911
vn -0.809017 0 0.587785
vn -0.5 0 0.866025
vn -0.104529 0 0.994522
vn 0.309017 0 0.951056
vn 0.669131 0 0.743145
vn 0.913545 0 0.406737
vn 1 0 -1.1355e-08
vn 0.820032 0 -0.572317
vn 0.516354 0 -0.856375
vn 0.123395 0 -0.992358
vn -0.290902 0 -0.956753
vn -0.654898 0 -0.755718
vn -0.911888 0 -0.410438
vn -0.911888 0 -0.410438
vn -1 0 -1.82286e-07
vn -1 0 -1.82286e-07
vn -0.907484 0 0.420086
vn -0.907484 0 0.420086
vn -0.907484 0 0.420086
vn -0.907484 0 0.420086
vn -0.654899 0 0.755716
vn -0.290902 0 0.956753
vn 0.123394 0 0.992358
vn 0.516355 0 0.856375
vn 0.820033 0 0.572317
vn 0.978148 0 0.207912
vn 0.978148 0 0.207912
vn 0.978148 0 -0.207912
vn 0.978148 0 -0.207912
vn 0.141332 -0.987217 -0.0736747
vn 0.16264 -0.981687 -0.099193
vn 0.151413 -0.971697 -0.181325
vn 0.169697 -0.971665 -0.164528
vn 0.0645712 -0.971697 -0.227236
vn 0.0881061 -0.971665 -0.219327
vn -0.0334362 -0.971697 -0.233854
vn -0.0087192 -0.971665 -0.236202
vn -0.125662 -0.971697 -0.200036
vn -0.104037 -0.971665 -0.212234
vn -0.233749 -0.961412 -0.145082
vn -0.203001 -0.966016 -0.16001
vn -0.260761 -0.963211 -0.0650302
vn -0.263368 -0.962026 -0.0717189
vn -0.11806 -0.992648 -0.0266672
vn -0.0559759 -0.997868 -0.0335603
vn 0.0975093 -0.990206 -0.0999242
vn 0.12356 -0.983274 -0.133809
vn 0.125667 -0.971694 -0.200044
vn 0.104041 -0.971663 -0.212243
vn 0.0334374 -0.971694 -0.233863
vn 0.00871967 -0.971663 -0.23621
vn -0.0645737 -0.971695 -0.227244
vn -0.0881096 -0.971663 -0.219334
vn -0.151419 -0.971695 -0.181332
vn -0.169703 -0.971663 -0.164534
vn -0.162647 -0.981685 -0.0991969
vn -0.141338 -0.987216 -0.0736778
vn 0.00263749 0.999906 0.0134566
vn 0.00263749 0.999906 0.0134566
vn 0.00263749 0.999906 0.0134566
vn 0.00263749 0.999906 0.0134566
vn 0.00263749 0.999906 0.0134566
vn 0.00263749 0.999906 0.0134566
vn 0.00263749 0.999906 0.0134566
vn 0.00263749 0.999906 0.0134566
vn -2.43464e-06 -0.999291 -0.0376519
vn -2.43941e-06 -0.999291 -0.0376519
vn 0.519895 0.822271 -0.231472
vn 0.519895 0.822271 -0.231472
vn 0.569095 0.822271 5.8188e-08
vn 0.569095 0.822271 6.64397e-08
vn 0.519894 0.822272 0.231472
vn 0.519894 0.822272 0.231472
vn 0.380799 0.822271 0.422921
vn 0.3808 0.822271 0.42292
vn 0.17586 0.822271 0.541243
vn 0.17586 0.822271 0.541243
vn -0.0594867 0.822271 0.565979
vn -0.0594867 0.822271 0.565979
vn -0.284548 0.822271 0.492851
vn -0.284548 0.822271 0.492851
vn -0.460408 0.822271 0.334506
vn -0.460408 0.822271 0.334506
vn -0.556659 0.822272 0.118321
vn -0.556659 0.822272 0.118321
vn -0.556659 0.822272 -0.118322
vn -0.556659 0.822272 -0.118321
vn -0.460408 0.822271 -0.334506
vn -0.460408 0.822271 -0.334507
vn -0.284548 0.82227 -0.492853
vn -0.284548 0.82227 -0.492853
vn -0.0594866 0.82227 -0.56598
vn -0.0594866 0.82227 -0.56598
vn 0.17586 0.822271 -0.541243
vn 0.17586 0.822271 -0.541243
vn 0 -1 0
vn 0.380799 0.822271 -0.422921
vn 0.380799 0.822271 -0.422921

# Mesh 'pCylinder8_pCylinder8' with 146 faces
g pCylinder8_pCylinder8
usemtl lambert1
f  1/1/1 2/2/1 3/3/2
f  3/3/2 4/4/2 1/1/1
f  4/4/2 3/3/2 5/5/3
f  5/5/3 6/6/3 4/4/2
f  6/6/3 5/5/3 7/7/4
f  7/7/4 8/8/4 6/6/3
f  8/9/4 7/10/4 9/11/5
f  9/11/5 10/12/5 8/9/4
f  10/12/5 9/11/5 11/13/6
f  11/13/6 12/14/6 10/12/5
f  12/14/6 11/13/6 13/15/7
f  13/15/7 14/16/7 12/14/6
f  14/16/7 13/15/7 15/17/8
f  15/17/8 16/18/8 14/16/7
f  16/18/8 15/17/8 17/19/9
f  17/19/9 18/20/9 16/18/8
f  18/20/9 17/19/9 19/21/10
f  19/21/10 20/22/10 18/20/9
f  20/22/10 19/21/10 21/23/11
f  21/23/11 22/24/11 20/22/10
f  22/24/11 21/23/11 23/25/12
f  23/25/12 24/26/12 22/24/11
f  24/26/12 23/25/12 25/27/13
f  25/27/13 26/28/13 24/26/12
f  26/28/13 25/27/13 27/29/14
f  27/29/14 28/30/14 26/28/13
f  28/30/14 27/29/14 29/31/15
f  29/31/15 30/32/15 28/30/14
f  30/32/15 29/31/15 2/2/1
f  2/2/1 1/1/1 30/32/15
f  31/33/16 32/34/16 33/35/16
f  33/35/16 34/36/16 31/33/16
f  34/36/17 33/35/17 35/37/17
f  35/37/17 36/38/17 34/36/17
f  36/38/18 35/37/18 37/39/18
f  37/39/18 38/40/18 36/38/18
f  38/41/19 37/42/19 39/43/19
f  39/43/19 40/44/19 38/41/19
f  40/44/20 39/43/20 41/45/20
f  41/45/20 42/46/20 40/44/20
f  42/46/21 41/45/21 43/47/22
f  43/47/22 44/48/21 42/46/21
f  44/48/23 43/47/24 45/49/23
f  45/49/23 46/50/24 44/48/23
f  46/50/25 45/49/26 47/51/27
f  47/51/27 48/52/28 46/50/25
f  48/52/29 47/51/29 49/53/29
f  49/53/29 50/54/29 48/52/29
f  50/54/30 49/53/30 51/55/30
f  51/55/30 52/56/30 50/54/30
f  52/56/31 51/55/31 53/57/31
f  53/57/31 54/58/31 52/56/31
f  54/58/32 53/57/32 55/59/32
f  55/59/32 56/60/32 54/58/32
f  56/60/33 55/59/33 57/61/33
f  57/61/33 58/62/33 56/60/33
f  58/62/34 57/61/35 59/32/34
f  59/32/34 60/63/35 58/62/34
f  60/63/36 59/32/37 32/34/36
f  32/34/36 31/33/37 60/63/36
f  32/34/38 1/1/39 4/4/40
f  4/4/40 33/35/41 32/34/38
f  33/35/41 4/4/40 6/6/42
f  6/6/42 35/37/43 33/35/41
f  35/37/43 6/6/42 8/8/44
f  8/8/44 37/39/45 35/37/43
f  37/42/45 8/9/44 10/12/46
f  10/12/46 39/43/47 37/42/45
f  39/43/47 10/12/46 12/14/48
f  12/14/48 41/45/49 39/43/47
f  41/45/49 12/14/48 14/16/50
f  14/16/50 43/47/51 41/45/49
f  43/47/51 14/16/50 16/18/52
f  16/18/52 45/49/53 43/47/51
f  45/49/53 16/18/52 18/20/54
f  18/20/54 47/51/55 45/49/53
f  47/51/55 18/20/54 20/22/56
f  20/22/56 49/53/57 47/51/55
f  49/53/57 20/22/56 22/24/58
f  22/24/58 51/55/59 49/53/57
f  51/55/59 22/24/58 24/26/60
f  24/26/60 53/57/61 51/55/59
f  53/57/61 24/26/60 26/28/62
f  26/28/62 55/59/63 53/57/61
f  55/59/63 26/28/62 28/30/64
f  28/30/64 57/61/65 55/59/63
f  54/64/66 56/65/67 58/66/68
f  54/64/66 58/66/68 60/67/69
f  54/64/66 60/67/69 31/68/68
f  54/64/66 31/68/68 34/69/70
f  54/64/66 34/69/70 36/70/70
f  54/64/66 36/70/70 38/71/66
f  54/64/66 38/71/66 40/72/68
f  54/64/66 40/72/68 42/73/71
f  54/64/66 42/73/71 44/74/72
f  54/64/66 44/74/72 46/75/70
f  54/64/66 46/75/70 48/76/73
f  54/64/66 48/76/73 50/77/70
f  50/77/70 52/78/70 54/64/66
f  57/61/65 28/30/64 30/32/74
f  30/32/74 59/32/75 57/61/65
f  59/32/75 30/32/74 1/1/39
f  1/1/39 32/34/38 59/32/75
f  61/79/76 2/2/77 29/31/78
f  29/31/78 62/80/79 61/79/76
f  62/80/79 29/31/78 27/29/80
f  27/29/80 63/81/81 62/80/79
f  63/81/81 27/29/80 25/27/82
f  25/27/82 64/82/83 63/81/81
f  64/82/83 25/27/82 23/25/84
f  23/25/84 65/83/85 64/82/83
f  65/83/85 23/25/84 21/23/86
f  21/23/86 66/84/87 65/83/85
f  66/84/87 21/23/86 19/21/88
f  19/21/88 67/85/89 66/84/87
f  67/85/89 19/21/88 17/19/90
f  17/19/90 68/86/91 67/85/89
f  68/86/91 17/19/90 15/17/92
f  15/17/92 69/87/93 68/86/91
f  69/87/93 15/17/92 13/15/94
f  13/15/94 70/88/95 69/87/93
f  70/88/95 13/15/94 11/13/96
f  11/13/96 71/89/97 70/88/95
f  71/89/97 11/13/96 9/11/98
f  9/11/98 72/90/99 71/89/97
f  72/90/99 9/11/98 7/10/100
f  7/10/100 73/91/101 72/90/99
f  73/92/101 7/7/100 5/5/102
f  5/5/102 74/93/103 73/92/101
f  73/94/104 74/95/104 75/96/104
f  73/94/104 75/96/104 61/97/104
f  73/94/104 61/97/104 62/98/104
f  73/94/104 62/98/104 63/99/104
f  73/94/104 63/99/104 64/100/104
f  73/94/104 64/100/104 65/101/104
f  73/94/104 65/101/104 66/102/104
f  73/94/104 66/102/104 67/103/104
f  73/94/104 67/103/104 68/104/104
f  73/94/104 68/104/104 69/105/104
f  73/94/104 69/105/104 70/106/104
f  73/94/104 70/106/104 71/107/104
f  71/107/104 72/108/104 73/94/104
f  74/93/103 5/5/102 3/3/105
f  3/3/105 75/109/106 74/93/103
f  75/109/106 3/3/105 2/2/77
f  2/2/77 61/79/76 75/109/106

